<svg xmlns="http://www.w3.org/2000/svg" viewBox="0 0 128 128">
  <path fill="#599636" d="M112.771 30.334L68.674 4.729c-2.781-1.584-6.402-1.584-9.205 0L14.901 30.334C12.031 31.985 10 35.088 10 38.407v51.142c0 3.319 2.084 6.423 4.954 8.083l11.775 6.688c5.628 2.772 7.617 2.772 10.178 2.772 8.333 0 13.093-5.039 13.093-13.828V42.739c0-.619-.423-1.028-1.029-1.028h-5.606c-.618 0-1.028.409-1.028 1.028v50.525c0 3.726-3.726 7.452-10.178 4.68L19.26 91.256c-.618-.309-1.028-.927-1.028-1.546V38.407c0-.619.409-1.237 1.028-1.546l43.882-25.605c.618-.309 1.237-.309 1.855 0l43.882 25.605c.618.309 1.028.927 1.028 1.546v51.142c0 .619-.41 1.237-1.028 1.546l-43.882 25.605c-.618.309-1.237.309-1.855 0l-11.775-6.688c-.309-.206-.824-.206-1.237 0-3.11 1.751-3.726 1.957-6.688 2.978-.515.206-1.237.618 0 1.237l15.501 9.05c1.442.824 3.11 1.237 4.68 1.237 1.751 0 3.319-.515 4.68-1.237l43.882-25.605c2.87-1.651 4.954-4.754 4.954-8.083V38.407c0-3.319-2.031-6.423-4.954-8.073z"/>
  <path fill="#6cac48" d="M67.53 57.455c-8.333 0-10.178-3.829-10.178-7.04 0-.619.412-1.028 1.028-1.028h5.709c.515 0 1.028.412 1.028.927.721 4.834 2.875 7.246 12.513 7.246 7.658 0 10.945-1.751 10.945-5.783 0-2.372-1.029-4.124-12.925-5.298-9.911-1.028-16.02-3.11-16.02-10.945 0-7.246 6.109-11.57 16.329-11.57 11.467 0 17.164 3.932 17.885 12.307.103.515-.103 1.028-.515 1.34-.412.309-.824.515-1.34.515h-5.709c-.515 0-.927-.309-1.028-.824-.927-4.021-3.11-5.298-9.293-5.298-6.894 0-7.658 2.372-7.658 4.124 0 2.681 1.029 3.419 12.513 4.947 11.364 1.546 16.432 3.726 16.432 11.261 0 7.864-6.585 12.307-18.052 12.307z"/>
  <path fill="#c2bfbf" d="M68.674 4.729c-2.781-1.584-6.402-1.584-9.205 0L14.901 30.334C12.031 31.985 10 35.088 10 38.407v51.142c0 3.319 2.084 6.423 4.954 8.083l11.775 6.688c5.628 2.772 7.617 2.772 10.178 2.772 8.333 0 13.093-5.039 13.093-13.828V42.739c0-.619-.423-1.028-1.029-1.028h-5.606c-.618 0-1.028.409-1.028 1.028v50.525c0 3.726-3.726 7.452-10.178 4.68L19.26 91.256c-.618-.309-1.028-.927-1.028-1.546V38.407c0-.619.409-1.237 1.028-1.546l43.882-25.605c.618-.309 1.237-.309 1.855 0l43.882 25.605c.618.309 1.028.927 1.028 1.546v51.142c0 .619-.41 1.237-1.028 1.546l-43.882 25.605c-.618.309-1.237.309-1.855 0l-11.775-6.688c-.309-.206-.824-.206-1.237 0-3.11 1.751-3.726 1.957-6.688 2.978-.515.206-1.237.618 0 1.237l15.501 9.05c1.442.824 3.11 1.237 4.68 1.237 1.751 0 3.319-.515 4.68-1.237l43.882-25.605c2.87-1.651 4.954-4.754 4.954-8.083V38.407c0-3.319-2.031-6.423-4.954-8.073z"/>
</svg>
