<svg xmlns="http://www.w3.org/2000/svg" viewBox="0 0 128 128">
  <path fill="#83CD29" d="M112.771 30.334L68.674 4.729c-2.781-1.584-6.402-1.584-9.205 0L14.901 30.334C12.031 31.985 10 35.088 10 38.407v51.142c0 3.319 2.084 6.423 4.954 8.083l11.775 6.688c5.628 2.772 7.617 2.772 10.178 2.772 8.333 0 13.093-5.039 13.093-13.828V42.739c0-.619-.423-1.028-1.029-1.028h-5.606c-.618 0-1.028.409-1.028 1.028v50.525c0 3.726-3.726 7.452-10.178 4.68L19.26 91.256c-.618-.309-1.028-.927-1.028-1.546V38.407c0-.619.409-1.237 1.028-1.546l43.882-25.605c.618-.309 1.237-.309 1.855 0l43.882 25.605c.618.309 1.028.927 1.028 1.546v51.142c0 .619-.41 1.237-1.028 1.546l-43.882 25.605c-.618.309-1.237.309-1.855 0l-11.775-6.688c-.309-.206-.824-.206-1.237 0-3.11 1.751-3.726 1.957-6.688 2.978-.515.206-1.237.618 0 1.237l15.501 9.05c1.442.824 3.11 1.237 4.68 1.237 1.751 0 3.319-.515 4.68-1.237l43.882-25.605c2.87-1.651 4.954-4.754 4.954-8.083V38.407c0-3.319-2.031-6.423-4.954-8.073zM77.91 81.445c-11.726 0-14.309-3.235-15.17-9.066-.1-.628-.51-1.041-1.138-1.041h-5.617c-.627 0-1.138.512-1.138 1.138 0 6.575 3.598 14.445 23.062 14.445 13.931 0 21.902-5.39 21.902-14.787 0-9.396-6.461-11.917-19.933-13.687-13.572-1.77-14.956-2.682-14.956-5.804 0-2.577 1.165-6.014 11.244-6.014 8.942 0 12.254 1.923 13.619 7.937.119.512.614.923 1.138.923h5.617c.308 0 .614-.103.819-.308.205-.205.308-.512.257-.819-1.023-12.254-8.942-17.952-21.451-17.952-12.254 0-19.574 5.185-19.574 13.878 0 9.498 7.344 12.101 19.471 13.26 14.445 1.385 15.418 3.462 15.418 6.231 0 4.834-3.905 6.886-13.096 6.886z"/>
</svg>
